<?xml version="1.0" encoding="UTF-8" ?>
<svg
   xmlns:xlink="http://www.w3.org/1999/xlink"
   xmlns:svg="http://www.w3.org/2000/svg"
   xmlns="http://www.w3.org/2000/svg"
   viewBox="0 0 589 432"
   width="589" height="432">

  <g id="puppet" transform="translate(40,-45)">
    <g id="torso"> <!-- BEGIN: TORSO + ARMS -->
      <animateTransform id="0" attributeName='transform' type='rotate' attributeType='XML' fill='freeze' additive='sum' />
      <circle id="pivot_torso"
        cx="200"
        cy="220"
        r="0"
        visibility="hidden" />
      <ellipse xlink:title="neck"
        cx="200"
        cy="128"
        rx="12"
        ry="9"
        style="fill:#F5F5DC; stroke:#A0522D; stroke-width:1" />
      <path xlink:title="head"
          d="M185,123 L177,80 Q200,56 223,80 L215,123 L185,123"
          style="fill:#F5F5DC; stroke:#A0522D; stroke-width:1" />
      <path xlink:title="chest"
        style="fill:#F5F5DC; stroke:#A0522D; stroke-width:1"
        d="M165,165 Q170,155 165,142 Q200,120 235,142 Q230,155 235,165 L228,220 172,220 L165,165" />

      <g id="left_arm">
        <animatetransform id="1" attributeName='transform' type='rotate' attributeType='XML' fill='freeze' additive='sum' />
        <circle id="pivot_left_arm"
            cx="159.3"
            cy="153"
            r="0"
            visibility="hidden" />
        <ellipse xlink:title="left_arm_svg_pivot"
            cx="159.3"
            cy="153"
            rx="7.7"
            ry="9"
            style="fill:#F5F5DC; stroke:#A0522D; stroke-width:1" />
        <path xlink:title="left_arm_limb"
            d="M97.2,146.7 Q134.1,136.8 151.2,144.9 L151.2,161.1 Q134.1,169.2 97.2,159.3 L97.2,146.7"
            style="fill:#F5F5DC; stroke:#A0522D; stroke-width:1;" />
        <g id="left_elbow">
        <animateTransform id="3" attributeName='transform' type='rotate' attributeType='XML' fill='freeze' additive='sum' />
          <circle id="pivot_left_elbow"
              cx="90.9"
              cy="153"
              r="0"
              visibility="hidden" />
          <ellipse xlink:title="left_elbow_svg_pivot"
              cx="90.9"
              cy="153"
              rx="5.9"
              ry="6.3"
              style="fill:#F5F5DC; stroke:#A0522D; stroke-width:1" />
          <path xlink:title="left_elbow_limb"
              d="M84.6,147.6 Q64.8,139.5 33.3,148.5 L33.3,157.5 Q64.8,166.5 84.6,158.4 L84.6,147.6"
              style="fill:#F5F5DC; stroke:#A0522D; stroke-width:1;" />
          <ellipse xlink:title="left_wrist"
              cx="29.3"
              cy="153"
              rx="3.6"
              ry="4.5"
              style="fill:#F5F5DC; stroke:#A0522D; stroke-width:1" />
          <path xlink:title="left_hand"
              d="M25.2,148.5 Q18,140.4 1.8,148.5 Q-5.4,153 1.8,157.5 Q18,165.6 25.2,157.5 L25.2,148.5"
              style="fill:#F5F5DC; stroke:#A0522D; stroke-width:1;" />
        </g>
      </g>

      <g id="right_arm">
        <animateTransform id="2" attributeName='transform' type='rotate' attributeType='XML' fill='freeze' additive='sum' />
        <circle id="pivot_right_arm"
            cx="240.3"
            cy="153"
            r="0"
            visibility="hidden" />
        <ellipse xlink:title="right_arm_svg_pivot"
            cx="240.3"
            cy="153"
            rx="7.65"
            ry="9"
            style="fill:#F5F5DC; stroke:#A0522D; stroke-width:1" />
        <path xlink:title="right_arm_limb"
            d="M248.4,144.9 Q265.5,136.8 302.4,146.7 L302.4,159.3 Q265.5,169.2 248.4,161.1 L248.4,144.9"
            style="fill:#F5F5DC; stroke:#A0522D; stroke-width:1;" />
        <g id="right_elbow">
        <animateTransform id="4" attributeName='transform' type='rotate' attributeType='XML' fill='freeze' additive='sum' />
          <circle id="pivot_right_elbow"
              cx="308.7"
              cy="153"
              r="0"
              visibility="hidden" />
          <ellipse xlink:title="right_elbow_svg_pivot"
              cx="308.7"
              cy="153"
              rx="5.85"
              ry="6.3"
              style="fill:#F5F5DC; stroke:#A0522D; stroke-width:1" />
          <path xlink:title="right_elbow_limb"
              d="M315,147.6 Q334.8,139.5 366.3,148.5 L366.3,157.5 Q334.8,166.5 315,158.4 L315,147.6"
              style="fill:#F5F5DC; stroke:#A0522D; stroke-width:1;" />
          <ellipse xlink:title="right_wrist"
              cx="370.3"
              cy="153"
              rx="3.6"
              ry="4.5"
              style="fill:#F5F5DC; stroke:#A0522D; stroke-width:1" />
          <path xlink:title="right_hand"
              d="M374.4,148.5 Q381.6,140.4 397.8,148.5 Q405,153 397.8,157.5 Q381.6,165.6 374.4,157.5 L374.4,148.5"
              style="fill:#F5F5DC; stroke:#A0522D; stroke-width:1;" />
        </g>
      </g>
    </g> <!-- END: TORSO + ARMS -->

    <g id="hip"> <!-- BEGIN: HIP + LEGS -->
      <animateTransform id="5" attributeName='transform' type='rotate' attributeType='XML' fill='freeze' additive='sum' />
      <circle id="pivot_hip"
          cx="200"
          cy="225"
          r="0"
          visibility="hidden" />
      <ellipse xlink:title="hip_svg_pivot"
          cx="200"
          cy="225"
          rx="26"
          ry="16"
          style="fill:#F5F5DC; stroke:#A0522D; stroke-width:1" />
      <path xlink:title="hip"
        style="fill:#F5F5DC; stroke:#A0522D; stroke-width:1"
        d="M165,275 Q160,245 171,230 L229,230 Q240,245 235,275 L165,275" />

      <g id="left_leg">
        <animateTransform id="6" attributeName='transform' type='rotate' attributeType='XML' fill='freeze' additive='sum' />
        <circle id="pivot_left_leg"
            cx="179"
            cy="281"
            r="0"
            visibility="hidden" />
        <ellipse xlink:title="left_leg_svg_pivot"
            cx="179"
            cy="281"
            rx="11"
            ry="5.5"
            style="fill:#F5F5DC; stroke:#A0522D; stroke-width:1" />
        <path xlink:title="left_leg_limb"
            d="M170.6,352.6 Q157.4,307.5 168.2,286.6 L189.8,286.6 Q200.6,307.5 187.4,352.6 L170.6,352.6"
            style="fill:#F5F5DC; stroke:#A0522D; stroke-width:1;" />
        <g id="left_knee">
          <animateTransform id="8" attributeName='transform' type='rotate' attributeType='XML' fill='freeze' additive='sum' />
          <circle id="pivot_left_knee"
              cx="179"
              cy="360.3"
              r="0"
              visibility="hidden" />
          <ellipse xlink:title="left_knee_svg_pivot"
              cx="179"
              cy="360.3"
              rx="8.4"
              ry="7.15"
              style="fill:#F5F5DC; stroke:#A0522D; stroke-width:1" />
          <path xlink:title="left_knee_limb"
              d="M171.8,368 Q161,392.2 173,430.7 L185,430.7 Q197,392.2 186.2,368 L171.8,368"
              style="fill:#F5F5DC; stroke:#A0522D; stroke-width:1;" />
          <ellipse xlink:title="left_ankle"
              cx="179"
              cy="435.6"
              rx="6"
              ry="4.4"
              style="fill:#F5F5DC; stroke:#A0522D; stroke-width:1" />
          <path xlink:title="left_feet"
              d="M173,440.6 Q162.2,449.4 173,469.2 Q179,478 185,469.2 Q 195.8,449.4 185,440.6 L173,440.6"
              style="fill:#F5F5DC; stroke:#A0522D; stroke-width:1;" />
        </g>
      </g>

    <g id="right_leg">
        <animateTransform id="7" attributeName='transform' type='rotate' attributeType='XML' fill='freeze' additive='sum' />
         <circle id="pivot_right_leg"
            cx="222"
            cy="281"
            r="0"
            visibility="hidden" />
          <ellipse xlink:title="right_leg_svg_pivot"
            cx="222"
            cy="281"
            rx="11"
            ry="5.5"
            style="fill:#F5F5DC; stroke:#A0522D; stroke-width:1" />
        <path xlink:title="right_leg_limb"
            d="M232.8,286.6 Q 243.6,307.5 230.4,352.6 L213.6,352.6 Q 200.4,307.5 211.2,286.6 L232.8,286.6"
            style="fill:#F5F5DC; stroke:#A0522D; stroke-width:1;" />
        <g id="right_knee">
          <animateTransform id="9" attributeName='transform' type='rotate' attributeType='XML' fill='freeze' additive='sum' />
          <circle id="pivot_right_knee"
            cx="222"
            cy="360.3"
            r="0"
            visibility="hidden" />
          <ellipse xlink:title="right_knee_svg_pivot"
              cx="222"
              cy="360.3"
              rx="8.4"
              ry="7.15"
              style="fill:#F5F5DC; stroke:#A0522D; stroke-width:1" />
          <path xlink:title="right_knee_limb"
              d="M229.2,368 Q240,392.2 228,430.7 L216,430.7 Q204,392.2 214.8,368 L229.2,368"
              style="fill:#F5F5DC; stroke:#A0522D; stroke-width:1;" />
          <ellipse xlink:title="right_ankle"
              cx="222"
              cy="435.7"
              rx="6"
              ry="4.4"
              style="fill:#F5F5DC; stroke:#A0522D; stroke-width:1" />
          <path xlink:title="right_feet"
              d="M228,440.6 Q238.8,449.4 228,469.2 Q222,478 216,469.2 Q205.2,449.4 216,440.6 L228,440.6"
              style="fill:#F5F5DC; stroke:#A0522D; stroke-width:1;" />
        </g>
      </g>
    </g> <!-- END: HIP + LEGS -->
  </g>
</svg>
